<svg width="975" height="327" viewBox="0 0 975 327" fill="none" xmlns="http://www.w3.org/2000/svg">
<path d="M119.88 223.44C120.34 224.36 120.82 225.26 121.31 226.15C134.11 225.49 145.66 218.92 152.71 208.4C152.51 208.02 152.31 207.64 152.11 207.25C144.94 192.98 145.78 176.75 152.91 163.69C149.21 158.07 144.06 153.29 137.66 150.01C132.61 147.42 127.23 145.95 121.63 145.64C119.08 150.2 116.95 155.04 115.27 160.11C108.31 181.14 109.94 203.63 119.88 223.44Z" fill="white"/>
<path d="M268.18 148.99C258.24 129.18 241.18 114.44 220.14 107.46C201.8 101.38 182.36 101.85 164.55 108.65C177.5 116.22 188.15 126.74 195.79 139.36C212.31 140.01 228.01 149.38 235.94 165.17C247.54 188.28 238.18 216.52 215.07 228.12C208.73 231.3 202.01 232.9 195.35 233.08C187.49 245.79 176.73 256.18 163.91 263.52C165.23 264.03 166.57 264.51 167.92 264.96C188.96 271.93 211.45 270.3 231.25 260.36C251.06 250.42 265.8 233.36 272.78 212.32C279.76 191.29 278.12 168.8 268.18 148.99Z" fill="white"/>
<path d="M190.55 143.39C182.67 130.12 171.21 119.29 157.13 112.08C145.73 106.23 133.41 103.16 120.97 102.92C115.41 113.94 114.98 127.32 120.8 139.04C127.52 139.25 134.3 140.91 140.67 144.18C148.6 148.25 154.89 154.29 159.23 161.39C165.42 161.04 171.48 159.26 176.9 156.18C182.46 152.99 187.09 148.64 190.55 143.39Z" fill="white"/>
<path d="M159.08 210.66C146.35 231.17 119.71 238.82 97.86 227.62C74.85 215.82 65.74 187.5 77.54 164.49C77.71 164.16 77.88 163.83 78.06 163.5C70.95 150.28 67.33 135.78 67.36 121.11C58.34 128.33 50.87 137.44 45.44 148.02C35.33 167.74 33.49 190.22 40.29 211.31C47.08 232.4 61.68 249.59 81.4 259.71C101.12 269.82 123.6 271.66 144.69 264.86C165.78 258.07 182.97 243.47 193.09 223.75C197.15 215.83 199.88 207.46 201.25 198.92C188.31 206.29 173.79 210.32 159.08 210.66Z" fill="white"/>
<path d="M180.15 161.87C173.17 165.85 165.59 167.82 158.08 167.99C152.54 178.95 152.05 192.3 157.9 204.11C171.83 203.97 185.57 200.29 198.01 193.2C210.45 186.11 220.63 176.16 227.85 164.24C220.95 153.58 209.47 146.83 196.68 145.98C192.7 152.37 187.13 157.89 180.15 161.87Z" fill="white"/>
<path d="M109.05 158.04C110.78 152.83 112.95 147.85 115.53 143.13C103.68 120.85 111.65 92.9499 133.72 80.3799C155.78 67.8099 183.83 75.1599 196.97 96.6999C205.52 96.9899 214 98.5099 222.22 101.24C228.13 103.2 233.75 105.73 239.02 108.78C237.52 98.7999 234.17 89.0799 229.03 80.0499C218.06 60.7999 200.24 46.9699 178.87 41.1099C157.5 35.2499 135.12 38.0699 115.87 49.0399C96.6001 60.0099 82.7701 77.8299 76.9101 99.1999C71.0501 120.57 73.8701 142.95 84.8401 162.2C89.9801 171.23 96.6401 179.06 104.46 185.43C104.55 176.24 106.07 167.02 109.05 158.04Z" fill="white"/>
<path d="M422.16 63.8799L409.72 112.67H396.2L388.32 82.4899L380.67 112.67H367.14L354.7 63.8799H367.5L374.26 96.6099L382.51 63.8799H394.75L402.57 96.6099L409.7 63.8799H422.16Z" fill="white"/>
<path d="M446.54 113.65C439.55 113.65 434.19 111.99 430.46 108.67C426.73 105.35 424.87 100.62 424.87 94.4799C424.87 88.4699 426.61 83.6799 430.08 80.0999C433.56 76.5199 438.42 74.7299 444.66 74.7299C450.33 74.7299 454.6 76.2499 457.46 79.2799C460.32 82.3199 461.75 86.6599 461.75 92.3199V96.4499H436.45C436.56 98.1499 436.92 99.5799 437.54 100.73C438.16 101.88 438.97 102.79 439.98 103.47C440.97 104.15 442.12 104.63 443.44 104.93C444.76 105.22 446.2 105.37 447.76 105.37C449.1 105.37 450.42 105.22 451.72 104.93C453.02 104.64 454.21 104.25 455.28 103.77C456.23 103.36 457.1 102.91 457.9 102.43C458.7 101.95 459.36 101.52 459.86 101.15H461.08V110.62C460.13 110.99 459.27 111.34 458.49 111.65C457.71 111.97 456.64 112.29 455.27 112.62C454.02 112.95 452.72 113.2 451.39 113.39C450.08 113.56 448.46 113.65 446.54 113.65ZM450.37 89.5399C450.3 87.1199 449.74 85.2699 448.67 83.9999C447.6 82.7299 445.97 82.0999 443.77 82.0999C441.53 82.0999 439.77 82.7699 438.51 84.0999C437.25 85.4299 436.55 87.2499 436.42 89.5399H450.37Z" fill="white"/>
<path d="M478.97 113.68C476.24 113.68 473.66 113.39 471.23 112.8C468.8 112.21 466.79 111.52 465.21 110.74V101.04H466.17C466.72 101.46 467.35 101.91 468.05 102.42C468.75 102.92 469.73 103.45 470.99 103.99C472.07 104.49 473.28 104.92 474.64 105.28C475.99 105.64 477.46 105.82 479.04 105.82C480.67 105.82 482.1 105.57 483.35 105.07C484.59 104.57 485.21 103.77 485.21 102.68C485.21 101.83 484.92 101.18 484.35 100.75C483.78 100.31 482.67 99.8999 481.02 99.4999C480.14 99.2799 479.03 99.0499 477.69 98.7999C476.35 98.5499 475.16 98.2599 474.13 97.9299C471.23 97.0299 469.04 95.7099 467.58 93.9499C466.12 92.1899 465.39 89.8799 465.39 87.0199C465.39 85.3799 465.77 83.8399 466.53 82.3799C467.29 80.9299 468.4 79.6299 469.88 78.4999C471.35 77.3899 473.17 76.4999 475.34 75.8499C477.51 75.1899 479.95 74.8699 482.68 74.8699C485.28 74.8699 487.66 75.1299 489.84 75.6399C492.02 76.1499 493.85 76.7699 495.35 77.4899V86.7999H494.43C494.03 86.4899 493.41 86.0799 492.55 85.5699C491.69 85.0599 490.86 84.6099 490.04 84.2399C489.07 83.7999 487.99 83.4399 486.79 83.1599C485.59 82.8799 484.36 82.7299 483.11 82.7299C481.44 82.7299 480.02 83.0099 478.87 83.5799C477.71 84.1499 477.14 84.8999 477.14 85.8399C477.14 86.6699 477.43 87.3299 478 87.8099C478.57 88.2899 479.81 88.7599 481.73 89.2199C482.72 89.4599 483.86 89.6999 485.15 89.9199C486.44 90.1499 487.67 90.4599 488.86 90.8499C491.52 91.6999 493.54 92.9499 494.91 94.5999C496.28 96.2499 496.97 98.4399 496.97 101.17C496.97 102.9 496.56 104.54 495.75 106.1C494.94 107.66 493.78 108.98 492.29 110.05C490.71 111.21 488.84 112.1 486.7 112.74C484.53 113.37 481.96 113.68 478.97 113.68Z" fill="white"/>
<path d="M516.65 113.39C511.94 113.39 508.52 112.43 506.37 110.51C504.22 108.59 503.15 105.44 503.15 101.07V83.8699H498.73V75.8799H503.15V65.3599H514.7V75.8799H525.82V83.8699H514.7V96.9099C514.7 98.1999 514.71 99.3199 514.73 100.28C514.75 101.24 514.93 102.1 515.26 102.87C515.57 103.63 516.11 104.24 516.89 104.69C517.67 105.14 518.81 105.36 520.31 105.36C520.93 105.36 521.73 105.23 522.74 104.97C523.74 104.71 524.44 104.47 524.83 104.25H525.82V112.34C524.57 112.67 523.24 112.92 521.83 113.11C520.42 113.3 518.7 113.39 516.65 113.39Z" fill="white"/>
<path d="M400.88 193.19H389L370.06 159.18V193.19H358.78V144.4H373.92L389.59 172.35V144.4H400.87V193.19H400.88Z" fill="white"/>
<path d="M445.75 174.81C445.75 180.86 444.08 185.63 440.75 189.11C437.42 192.59 432.71 194.34 426.61 194.34C420.56 194.34 415.86 192.6 412.51 189.11C409.16 185.63 407.48 180.86 407.48 174.81C407.48 168.69 409.16 163.9 412.51 160.44C415.86 156.98 420.56 155.25 426.61 155.25C432.68 155.25 437.39 156.99 440.73 160.48C444.08 163.96 445.75 168.74 445.75 174.81ZM433.91 174.87C433.91 172.69 433.73 170.87 433.37 169.41C433.01 167.96 432.51 166.79 431.87 165.92C431.19 165 430.42 164.36 429.56 164C428.7 163.64 427.72 163.46 426.62 163.46C425.59 163.46 424.65 163.62 423.82 163.94C422.98 164.26 422.21 164.86 421.51 165.76C420.85 166.61 420.32 167.78 419.93 169.27C419.53 170.76 419.34 172.62 419.34 174.87C419.34 177.12 419.53 178.94 419.9 180.33C420.27 181.72 420.76 182.83 421.35 183.66C421.97 184.51 422.74 185.13 423.66 185.53C424.58 185.93 425.61 186.12 426.73 186.12C427.65 186.12 428.59 185.92 429.55 185.53C430.51 185.14 431.27 184.55 431.84 183.76C432.52 182.82 433.04 181.69 433.39 180.37C433.73 179.04 433.91 177.21 433.91 174.87Z" fill="white"/>
<path d="M476.76 167.24H475.8C475.36 167.09 474.72 166.97 473.89 166.9C473.05 166.82 472.13 166.79 471.12 166.79C469.91 166.79 468.64 166.97 467.31 167.31C465.98 167.66 464.69 168.07 463.43 168.56V193.2H451.88V156.41H463.43V161.69C463.96 161.21 464.69 160.6 465.62 159.87C466.55 159.14 467.41 158.55 468.18 158.12C469.02 157.62 469.99 157.19 471.1 156.83C472.21 156.47 473.26 156.29 474.25 156.29C474.62 156.29 475.04 156.3 475.5 156.32C475.96 156.34 476.38 156.37 476.75 156.42V167.24H476.76Z" fill="white"/>
<path d="M495.37 193.91C490.66 193.91 487.24 192.95 485.09 191.03C482.94 189.11 481.87 185.96 481.87 181.59V164.39H477.45V156.4H481.87V145.88H493.42V156.4H504.54V164.39H493.42V177.43C493.42 178.72 493.43 179.84 493.45 180.8C493.47 181.76 493.65 182.62 493.98 183.39C494.29 184.15 494.83 184.76 495.61 185.21C496.39 185.66 497.53 185.88 499.03 185.88C499.65 185.88 500.45 185.75 501.46 185.49C502.46 185.23 503.16 184.99 503.55 184.77H504.54V192.86C503.29 193.19 501.96 193.44 500.55 193.63C499.14 193.82 497.42 193.91 495.37 193.91Z" fill="white"/>
<path d="M543.97 193.19H532.36V174.94C532.36 173.45 532.3 171.97 532.18 170.5C532.06 169.03 531.83 167.94 531.5 167.24C531.1 166.41 530.53 165.81 529.78 165.45C529.03 165.09 528.03 164.91 526.78 164.91C525.83 164.91 524.88 165.09 523.91 165.43C522.94 165.78 521.91 166.34 520.81 167.1V193.18H509.26V142.2H520.81V160.45C522.7 158.86 524.54 157.61 526.34 156.71C528.13 155.81 530.12 155.37 532.3 155.37C536.08 155.37 538.98 156.55 540.98 158.92C542.98 161.29 543.98 164.72 543.98 169.22V193.19H543.97Z" fill="white"/>
<path d="M572.93 189.29C572.14 189.95 571.43 190.54 570.8 191.06C570.17 191.58 569.33 192.11 568.28 192.63C567.25 193.13 566.24 193.51 565.26 193.78C564.28 194.04 562.91 194.17 561.15 194.17C557.87 194.17 555.15 193.08 552.99 190.89C550.82 188.71 549.74 185.95 549.74 182.63C549.74 179.9 550.29 177.69 551.39 176.01C552.49 174.33 554.07 173 556.14 172.01C558.23 171.01 560.73 170.31 563.63 169.91C566.53 169.51 569.66 169.21 573 168.99V168.79C573 166.76 572.25 165.36 570.74 164.58C569.23 163.81 566.97 163.42 563.96 163.42C562.6 163.42 561 163.67 559.18 164.16C557.35 164.65 555.57 165.28 553.84 166.04H552.85V157.16C553.99 156.83 555.84 156.44 558.39 156C560.94 155.55 563.51 155.33 566.11 155.33C572.49 155.33 577.13 156.38 580.05 158.49C582.96 160.6 584.42 163.81 584.42 168.14V193.17H572.94V189.29H572.93ZM572.93 183.59V175.92C570.97 176.12 569.39 176.29 568.18 176.43C566.97 176.57 565.78 176.85 564.62 177.27C563.61 177.62 562.82 178.15 562.26 178.86C561.7 179.57 561.42 180.51 561.42 181.69C561.42 183.42 561.89 184.6 562.82 185.24C563.75 185.88 565.13 186.21 566.96 186.21C567.97 186.21 569.01 185.98 570.06 185.52C571.11 185.06 572.08 184.42 572.93 183.59Z" fill="white"/>
<path d="M637.23 193.19V174.81C637.23 173 637.2 171.47 637.13 170.22C637.06 168.97 636.87 167.96 636.54 167.17C636.21 166.38 635.7 165.81 635.01 165.45C634.32 165.09 633.34 164.91 632.09 164.91C631.21 164.91 630.34 165.1 629.48 165.48C628.62 165.86 627.69 166.4 626.68 167.1V193.18H615.07V174.8C615.07 173.01 615.03 171.49 614.95 170.23C614.87 168.97 614.67 167.95 614.34 167.17C614.01 166.39 613.5 165.81 612.81 165.45C612.12 165.09 611.16 164.91 609.92 164.91C608.97 164.91 608.05 165.13 607.15 165.57C606.25 166.01 605.37 166.52 604.51 167.11V193.19H592.96V156.4H604.51V160.46C606.4 158.87 608.18 157.62 609.85 156.72C611.52 155.82 613.4 155.38 615.49 155.38C617.76 155.38 619.75 155.92 621.46 156.99C623.18 158.06 624.48 159.66 625.39 161.77C627.61 159.72 629.71 158.14 631.67 157.04C633.64 155.94 635.63 155.39 637.66 155.39C639.38 155.39 640.92 155.66 642.28 156.21C643.64 156.76 644.8 157.58 645.74 158.67C646.77 159.85 647.55 161.25 648.07 162.88C648.59 164.51 648.84 166.63 648.84 169.25V193.2H637.23V193.19Z" fill="white"/>
<path d="M693.71 174.28C693.71 180.16 692.21 184.9 689.21 188.5C686.21 192.1 682.51 193.91 678.11 193.91C676.26 193.91 674.66 193.7 673.29 193.29C671.93 192.88 670.47 192.23 668.94 191.36V206.69H657.39V156.4H668.94V160.23C670.63 158.79 672.36 157.62 674.12 156.72C675.88 155.82 677.91 155.38 680.22 155.38C684.51 155.38 687.83 157.07 690.18 160.46C692.54 163.84 693.71 168.45 693.71 174.28ZM681.9 174.51C681.9 170.93 681.34 168.33 680.23 166.71C679.12 165.09 677.39 164.29 675.03 164.29C674 164.29 672.97 164.45 671.94 164.78C670.92 165.11 669.91 165.6 668.92 166.25V184.76C669.54 185.02 670.21 185.21 670.95 185.32C671.69 185.43 672.56 185.48 673.57 185.48C676.39 185.48 678.47 184.57 679.84 182.74C681.22 180.93 681.9 178.18 681.9 174.51Z" fill="white"/>
<path d="M714.1 193.91C709.39 193.91 705.97 192.95 703.82 191.03C701.67 189.11 700.6 185.96 700.6 181.59V164.39H696.18V156.4H700.6V145.88H712.15V156.4H723.27V164.39H712.15V177.43C712.15 178.72 712.16 179.84 712.18 180.8C712.2 181.76 712.38 182.62 712.71 183.39C713.02 184.15 713.56 184.76 714.34 185.21C715.12 185.66 716.26 185.88 717.76 185.88C718.38 185.88 719.18 185.75 720.19 185.49C721.19 185.23 721.89 184.99 722.28 184.77H723.27V192.86C722.02 193.19 720.69 193.44 719.28 193.63C717.88 193.82 716.15 193.91 714.1 193.91Z" fill="white"/>
<path d="M763.56 174.81C763.56 180.86 761.89 185.63 758.56 189.11C755.23 192.59 750.52 194.34 744.42 194.34C738.37 194.34 733.67 192.6 730.32 189.11C726.97 185.63 725.29 180.86 725.29 174.81C725.29 168.69 726.97 163.9 730.32 160.44C733.67 156.98 738.37 155.25 744.42 155.25C750.49 155.25 755.2 156.99 758.54 160.48C761.89 163.96 763.56 168.74 763.56 174.81ZM751.71 174.87C751.71 172.69 751.53 170.87 751.17 169.41C750.81 167.96 750.31 166.79 749.67 165.92C748.99 165 748.22 164.36 747.36 164C746.5 163.64 745.52 163.46 744.42 163.46C743.39 163.46 742.45 163.62 741.62 163.94C740.78 164.26 740.01 164.86 739.31 165.76C738.65 166.61 738.12 167.78 737.73 169.27C737.33 170.76 737.14 172.62 737.14 174.87C737.14 177.12 737.33 178.94 737.7 180.33C738.07 181.72 738.56 182.83 739.15 183.66C739.77 184.51 740.54 185.13 741.46 185.53C742.38 185.93 743.41 186.12 744.53 186.12C745.45 186.12 746.39 185.92 747.35 185.53C748.31 185.14 749.07 184.55 749.64 183.76C750.32 182.82 750.84 181.69 751.19 180.37C751.54 179.04 751.71 177.21 751.71 174.87Z" fill="white"/>
<path d="M804.4 193.19H792.79V174.94C792.79 173.45 792.73 171.97 792.61 170.5C792.49 169.03 792.26 167.94 791.93 167.24C791.53 166.41 790.96 165.81 790.21 165.45C789.46 165.09 788.46 164.91 787.21 164.91C786.26 164.91 785.31 165.09 784.34 165.43C783.37 165.78 782.34 166.34 781.24 167.1V193.18H769.69V156.39H781.24V160.45C783.13 158.86 784.97 157.61 786.77 156.71C788.56 155.81 790.55 155.37 792.73 155.37C796.51 155.37 799.41 156.55 801.41 158.92C803.41 161.29 804.41 164.72 804.41 169.22V193.19H804.4Z" fill="white"/>
<path d="M824.23 194.2C821.5 194.2 818.92 193.91 816.49 193.32C814.06 192.73 812.05 192.04 810.47 191.26V181.56H811.43C811.98 181.98 812.61 182.43 813.31 182.94C814.01 183.44 814.99 183.97 816.25 184.51C817.33 185.01 818.54 185.44 819.9 185.8C821.25 186.16 822.72 186.34 824.3 186.34C825.93 186.34 827.36 186.09 828.61 185.59C829.85 185.09 830.47 184.29 830.47 183.2C830.47 182.35 830.18 181.7 829.61 181.27C829.04 180.83 827.93 180.42 826.28 180.02C825.4 179.8 824.29 179.57 822.95 179.32C821.61 179.07 820.42 178.78 819.39 178.45C816.49 177.55 814.3 176.23 812.84 174.47C811.38 172.71 810.65 170.4 810.65 167.54C810.65 165.9 811.03 164.36 811.79 162.9C812.55 161.45 813.66 160.15 815.14 159.02C816.61 157.91 818.43 157.02 820.6 156.37C822.77 155.71 825.21 155.39 827.94 155.39C830.54 155.39 832.92 155.65 835.1 156.16C837.28 156.67 839.11 157.29 840.61 158.01V167.32H839.69C839.29 167.01 838.67 166.6 837.81 166.09C836.95 165.58 836.12 165.13 835.3 164.76C834.33 164.32 833.25 163.96 832.05 163.68C830.85 163.4 829.62 163.25 828.37 163.25C826.7 163.25 825.28 163.53 824.13 164.1C822.97 164.67 822.4 165.42 822.4 166.36C822.4 167.19 822.69 167.85 823.26 168.33C823.83 168.81 825.07 169.28 826.99 169.74C827.98 169.98 829.12 170.22 830.41 170.44C831.7 170.67 832.93 170.98 834.12 171.37C836.78 172.22 838.8 173.47 840.17 175.12C841.54 176.77 842.23 178.96 842.23 181.69C842.23 183.42 841.82 185.06 841.01 186.62C840.2 188.18 839.04 189.5 837.55 190.57C835.97 191.73 834.1 192.62 831.96 193.26C829.79 193.89 827.22 194.2 824.23 194.2Z" fill="white"/>
<path d="M882.43 193.19H870.82V174.94C870.82 173.45 870.76 171.97 870.64 170.5C870.52 169.03 870.29 167.94 869.96 167.24C869.56 166.41 868.99 165.81 868.24 165.45C867.49 165.09 866.49 164.91 865.24 164.91C864.29 164.91 863.34 165.09 862.37 165.43C861.4 165.78 860.37 166.34 859.27 167.1V193.18H847.72V142.2H859.27V160.45C861.16 158.86 863 157.61 864.8 156.71C866.59 155.81 868.58 155.37 870.76 155.37C874.54 155.37 877.44 156.55 879.44 158.92C881.44 161.29 882.44 164.72 882.44 169.22V193.19H882.43Z" fill="white"/>
<path d="M902.85 151.15H890.64V142.21H902.85V151.15ZM902.52 193.19H890.97V156.4H902.52V193.19Z" fill="white"/>
<path d="M936.24 167.24H935.28C934.84 167.09 934.2 166.97 933.37 166.9C932.53 166.82 931.61 166.79 930.6 166.79C929.39 166.79 928.12 166.97 926.79 167.31C925.46 167.66 924.17 168.07 922.91 168.56V193.2H911.36V156.41H922.91V161.69C923.44 161.21 924.17 160.6 925.1 159.87C926.03 159.14 926.89 158.55 927.66 158.12C928.5 157.62 929.47 157.19 930.58 156.83C931.69 156.47 932.74 156.29 933.73 156.29C934.1 156.29 934.52 156.3 934.98 156.32C935.44 156.34 935.86 156.37 936.23 156.42V167.24H936.24Z" fill="white"/>
<path d="M959.63 194.17C952.64 194.17 947.28 192.51 943.55 189.19C939.82 185.87 937.96 181.14 937.96 175C937.96 168.99 939.7 164.2 943.17 160.62C946.65 157.04 951.51 155.25 957.75 155.25C963.42 155.25 967.69 156.77 970.55 159.8C973.41 162.84 974.84 167.18 974.84 172.84V176.97H949.54C949.65 178.67 950.01 180.1 950.63 181.25C951.25 182.4 952.06 183.31 953.07 183.99C954.06 184.67 955.21 185.15 956.53 185.45C957.85 185.74 959.29 185.89 960.85 185.89C962.19 185.89 963.51 185.74 964.81 185.45C966.11 185.16 967.3 184.77 968.37 184.29C969.32 183.88 970.19 183.43 970.99 182.95C971.79 182.47 972.45 182.04 972.95 181.67H974.17V191.14C973.22 191.51 972.36 191.86 971.58 192.17C970.8 192.49 969.73 192.81 968.36 193.14C967.11 193.47 965.81 193.72 964.48 193.91C963.16 194.08 961.54 194.17 959.63 194.17ZM963.45 170.06C963.38 167.64 962.82 165.79 961.75 164.52C960.68 163.25 959.05 162.62 956.85 162.62C954.61 162.62 952.85 163.29 951.59 164.62C950.33 165.95 949.63 167.77 949.5 170.06H963.45Z" fill="white"/>
<path d="M379.97 274.66C372.6 274.66 366.75 272.45 362.42 268.03C358.09 263.61 355.92 257.39 355.92 249.37C355.92 241.64 358.09 235.47 362.44 230.87C366.78 226.27 372.64 223.97 380.01 223.97C381.97 223.97 383.73 224.08 385.29 224.3C386.85 224.52 388.35 224.82 389.78 225.22C390.9 225.55 392.12 226 393.44 226.56C394.76 227.13 395.83 227.62 396.64 228.03V239.66H395.39C394.8 239.14 394.05 238.51 393.15 237.78C392.25 237.05 391.23 236.33 390.08 235.63C388.93 234.93 387.68 234.34 386.3 233.84C384.93 233.35 383.49 233.1 382 233.1C380.22 233.1 378.58 233.38 377.1 233.94C375.61 234.5 374.2 235.46 372.86 236.84C371.63 238.09 370.62 239.77 369.84 241.89C369.06 244.01 368.67 246.51 368.67 249.39C368.67 252.43 369.08 254.98 369.89 257.04C370.7 259.1 371.77 260.77 373.09 262.04C374.37 263.26 375.79 264.15 377.36 264.69C378.93 265.24 380.5 265.51 382.06 265.51C383.69 265.51 385.24 265.24 386.71 264.71C388.18 264.18 389.43 263.58 390.44 262.92C391.54 262.24 392.51 261.55 393.34 260.86C394.17 260.17 394.9 259.54 395.52 258.99H396.64V270.46C395.74 270.88 394.69 271.35 393.51 271.89C392.32 272.43 391.1 272.88 389.85 273.25C388.31 273.71 386.87 274.06 385.53 274.3C384.19 274.54 382.32 274.66 379.97 274.66Z" fill="white"/>
<path d="M438.79 255.33C438.79 261.38 437.12 266.15 433.79 269.63C430.46 273.11 425.75 274.86 419.65 274.86C413.6 274.86 408.9 273.12 405.55 269.63C402.2 266.15 400.52 261.38 400.52 255.33C400.52 249.21 402.2 244.43 405.55 240.96C408.9 237.5 413.6 235.77 419.65 235.77C425.72 235.77 430.43 237.51 433.77 241C437.12 244.48 438.79 249.26 438.79 255.33ZM426.95 255.4C426.95 253.22 426.77 251.4 426.41 249.95C426.05 248.5 425.55 247.33 424.91 246.46C424.23 245.54 423.46 244.9 422.6 244.54C421.74 244.18 420.76 244 419.66 244C418.63 244 417.69 244.16 416.86 244.47C416.02 244.79 415.25 245.39 414.55 246.29C413.89 247.14 413.36 248.31 412.97 249.8C412.57 251.29 412.38 253.15 412.38 255.4C412.38 257.65 412.57 259.47 412.94 260.85C413.31 262.24 413.8 263.35 414.39 264.18C415.01 265.03 415.78 265.65 416.7 266.05C417.62 266.44 418.65 266.64 419.77 266.64C420.69 266.64 421.63 266.44 422.59 266.05C423.55 265.66 424.31 265.07 424.88 264.28C425.56 263.34 426.08 262.21 426.43 260.89C426.77 259.56 426.95 257.73 426.95 255.4Z" fill="white"/>
<path d="M479.34 273.71H467.79V269.65C465.79 271.31 463.95 272.57 462.28 273.43C460.61 274.29 458.62 274.72 456.31 274.72C452.64 274.72 449.77 273.57 447.72 271.26C445.66 268.96 444.63 265.49 444.63 260.86V236.91H456.24V255.16C456.24 257.06 456.29 258.61 456.39 259.81C456.49 261.01 456.73 262.03 457.1 262.86C457.45 263.62 458 264.2 458.73 264.6C459.47 264.99 460.49 265.19 461.81 265.19C462.62 265.19 463.59 264.99 464.7 264.6C465.81 264.21 466.84 263.67 467.79 262.99V236.91H479.34V273.71Z" fill="white"/>
<path d="M522.89 273.71H511.28V255.46C511.28 253.97 511.22 252.5 511.1 251.02C510.98 249.55 510.75 248.46 510.42 247.76C510.02 246.93 509.45 246.34 508.7 245.97C507.95 245.61 506.95 245.43 505.7 245.43C504.75 245.43 503.8 245.6 502.83 245.95C501.86 246.3 500.83 246.86 499.73 247.62V273.7H488.18V236.91H499.73V240.97C501.62 239.38 503.46 238.13 505.26 237.23C507.06 236.33 509.04 235.89 511.22 235.89C515 235.89 517.9 237.08 519.9 239.45C521.9 241.82 522.9 245.25 522.9 249.75V273.71H522.89Z" fill="white"/>
<path d="M549.61 274.69C546.55 274.69 543.75 274.31 541.21 273.54C538.67 272.78 536.46 271.6 534.59 270C532.74 268.41 531.3 266.4 530.27 263.99C529.24 261.58 528.72 258.73 528.72 255.46C528.72 251.94 529.28 248.95 530.4 246.48C531.52 244.01 533.04 241.98 534.95 240.39C536.8 238.86 538.97 237.73 541.47 237C543.97 236.27 546.57 235.9 549.27 235.9C551.32 235.9 553.36 236.14 555.41 236.6C557.46 237.07 559.51 237.82 561.58 238.84V248.67H560.1C559.64 248.23 559.07 247.75 558.4 247.23C557.73 246.71 557 246.23 556.21 245.79C555.37 245.33 554.43 244.94 553.37 244.63C552.31 244.31 551.14 244.15 549.84 244.15C546.89 244.15 544.61 245.17 542.99 247.21C541.37 249.25 540.56 252 540.56 255.45C540.56 259.14 541.42 261.89 543.15 263.71C544.88 265.53 547.17 266.43 550.03 266.43C551.48 266.43 552.76 266.27 553.86 265.94C554.96 265.61 555.91 265.22 556.7 264.76C557.47 264.3 558.13 263.83 558.68 263.33C559.23 262.84 559.7 262.4 560.1 262H561.58V271.83C560.92 272.11 560.16 272.44 559.29 272.81C558.42 273.18 557.54 273.49 556.63 273.73C555.51 274.04 554.46 274.27 553.48 274.43C552.51 274.61 551.21 274.69 549.61 274.69Z" fill="white"/>
<path d="M578.94 231.67H566.73V222.73H578.94V231.67ZM578.61 273.71H567.06V236.92H578.61V273.71Z" fill="white"/>
<path d="M599 273.71H587.45V222.73H599V273.71Z" fill="white"/>
<path d="M300.32 214.91C298.52 217.46 297.29 220.44 296.74 223.6C292.59 247.45 289.76 265.98 271.42 275.91C260.01 282.09 247.36 282.8 235.83 278.99C234.53 289.93 230.27 300.7 222.94 309.72C206.96 329.41 183.43 328.98 162.16 322.59C159.31 321.73 156.31 321.61 153.41 322.25C131.54 327.05 114.69 331.17 99.34 316.42C88.9501 306.45 83.5201 292.57 83.1501 278.3C71.9201 281.78 59.3801 281.18 47.6301 275.61C25.4901 265.13 18.6301 240.65 17.6701 216.66C17.5401 213.45 16.7301 210.3 15.2801 207.5C4.35005 186.34 -4.42995 170.17 3.74005 149.74C9.55005 135.21 20.8101 125.02 34.0201 120.55C27.9701 110.14 24.9501 97.3599 26.2201 83.9299C28.6901 57.7999 48.0501 43.2599 68.7801 34.9999C71.5601 33.8899 74.0601 32.0899 76.0801 29.7399C91.3101 11.9999 102.8 -2.01011 123.18 0.259888C136.59 1.75989 148.16 9.21989 156.09 20.1099C163.31 10.8499 173.44 3.94989 185.4 1.16989C209.01 -4.32011 227.69 11.2499 241.29 30.1499C243.11 32.6799 245.46 34.7199 248.14 36.0899C268.34 46.3899 284.14 53.9799 288.42 75.7699C291.49 91.4099 287.68 106.98 279.16 119.02C292.91 123.07 305.24 133.51 312.25 148.84C322.99 172.33 313.77 195.88 300.32 214.91ZM298.27 150.13C291.9 136.2 280.69 126.71 268.19 123.03C275.94 112.08 279.4 97.9399 276.61 83.7199C272.72 63.9099 258.36 57.0099 240 47.6499C237.57 46.4099 235.43 44.5599 233.78 42.2499C221.41 25.0699 204.44 10.9099 182.97 15.8999C172.1 18.4299 162.89 24.6999 156.33 33.1199C149.12 23.2299 138.6 16.4399 126.42 15.0799C107.9 13.0099 97.44 25.7499 83.6001 41.8699C81.7701 44.0099 79.4901 45.6399 76.9601 46.6499C58.1201 54.1599 40.5201 67.3699 38.2801 91.1299C37.1301 103.34 39.8701 114.96 45.3701 124.42C33.3701 128.48 23.1301 137.75 17.8501 150.96C10.4201 169.54 18.4101 184.23 28.3401 203.47C29.6601 206.02 30.4001 208.88 30.5201 211.8C31.3901 233.6 37.6201 255.86 57.7501 265.39C68.4301 270.45 79.8301 271 90.0401 267.83C90.3801 280.81 95.3201 293.42 104.76 302.48C118.72 315.89 134.03 312.14 153.91 307.78C156.54 307.2 159.27 307.31 161.86 308.09C181.2 313.9 202.58 314.29 217.11 296.39C223.77 288.19 227.65 278.4 228.83 268.46C239.31 271.93 250.81 271.28 261.18 265.66C277.85 256.63 280.43 239.79 284.19 218.11C284.69 215.24 285.81 212.53 287.45 210.21C299.66 192.92 308.05 171.51 298.27 150.13Z" fill="white"/>
</svg>
